<mxfile host="app.diagrams.net" agent="Mozilla/5.0 (Windows NT 10.0; Win64; x64) AppleWebKit/537.36 (KHTML, like Gecko) Chrome/131.0.0.0 Safari/537.36 Edg/131.0.0.0" version="24.9.3">
  <diagram name="Страница — 1" id="iqEY3wC7e-XA7V0lx9zw">
    <mxGraphModel dx="784" dy="1143" grid="1" gridSize="10" guides="1" tooltips="1" connect="1" arrows="1" fold="1" page="1" pageScale="1" pageWidth="827" pageHeight="1169" math="0" shadow="0">
      <root>
        <mxCell id="0" />
        <mxCell id="1" parent="0" />
        <mxCell id="TpDyGz6NfrkudXZhNOag-17" style="edgeStyle=orthogonalEdgeStyle;rounded=0;orthogonalLoop=1;jettySize=auto;html=1;exitX=1;exitY=0.5;exitDx=0;exitDy=0;entryX=0;entryY=0.5;entryDx=0;entryDy=0;" edge="1" parent="1" source="TpDyGz6NfrkudXZhNOag-1" target="TpDyGz6NfrkudXZhNOag-16">
          <mxGeometry relative="1" as="geometry" />
        </mxCell>
        <mxCell id="TpDyGz6NfrkudXZhNOag-1" value="Станок" style="rounded=0;whiteSpace=wrap;html=1;" vertex="1" parent="1">
          <mxGeometry x="50" y="360" width="120" height="60" as="geometry" />
        </mxCell>
        <mxCell id="TpDyGz6NfrkudXZhNOag-11" style="edgeStyle=orthogonalEdgeStyle;rounded=0;orthogonalLoop=1;jettySize=auto;html=1;exitX=0.5;exitY=1;exitDx=0;exitDy=0;entryX=0.5;entryY=0;entryDx=0;entryDy=0;" edge="1" parent="1" source="TpDyGz6NfrkudXZhNOag-2" target="TpDyGz6NfrkudXZhNOag-10">
          <mxGeometry relative="1" as="geometry" />
        </mxCell>
        <mxCell id="TpDyGz6NfrkudXZhNOag-2" value="Тип Станка" style="rounded=0;whiteSpace=wrap;html=1;" vertex="1" parent="1">
          <mxGeometry x="50" y="200" width="120" height="60" as="geometry" />
        </mxCell>
        <mxCell id="TpDyGz6NfrkudXZhNOag-20" style="edgeStyle=orthogonalEdgeStyle;rounded=0;orthogonalLoop=1;jettySize=auto;html=1;exitX=0;exitY=0.5;exitDx=0;exitDy=0;entryX=1;entryY=0.5;entryDx=0;entryDy=0;" edge="1" parent="1" source="TpDyGz6NfrkudXZhNOag-3" target="TpDyGz6NfrkudXZhNOag-14">
          <mxGeometry relative="1" as="geometry" />
        </mxCell>
        <mxCell id="TpDyGz6NfrkudXZhNOag-22" style="edgeStyle=orthogonalEdgeStyle;rounded=0;orthogonalLoop=1;jettySize=auto;html=1;exitX=0.5;exitY=1;exitDx=0;exitDy=0;entryX=0.5;entryY=0;entryDx=0;entryDy=0;" edge="1" parent="1" source="TpDyGz6NfrkudXZhNOag-3" target="TpDyGz6NfrkudXZhNOag-21">
          <mxGeometry relative="1" as="geometry" />
        </mxCell>
        <mxCell id="TpDyGz6NfrkudXZhNOag-3" value="Деталь" style="rounded=0;whiteSpace=wrap;html=1;" vertex="1" parent="1">
          <mxGeometry x="330" y="200" width="120" height="60" as="geometry" />
        </mxCell>
        <mxCell id="TpDyGz6NfrkudXZhNOag-4" value="Данные накладной" style="rounded=0;whiteSpace=wrap;html=1;" vertex="1" parent="1">
          <mxGeometry x="330" y="360" width="120" height="60" as="geometry" />
        </mxCell>
        <mxCell id="TpDyGz6NfrkudXZhNOag-38" style="edgeStyle=orthogonalEdgeStyle;rounded=0;orthogonalLoop=1;jettySize=auto;html=1;exitX=0.5;exitY=0;exitDx=0;exitDy=0;entryX=0.5;entryY=1;entryDx=0;entryDy=0;" edge="1" parent="1" source="TpDyGz6NfrkudXZhNOag-5" target="TpDyGz6NfrkudXZhNOag-28">
          <mxGeometry relative="1" as="geometry" />
        </mxCell>
        <mxCell id="TpDyGz6NfrkudXZhNOag-5" value="Сотрудник" style="rounded=0;whiteSpace=wrap;html=1;" vertex="1" parent="1">
          <mxGeometry x="470" y="440" width="120" height="60" as="geometry" />
        </mxCell>
        <mxCell id="TpDyGz6NfrkudXZhNOag-39" style="edgeStyle=orthogonalEdgeStyle;rounded=0;orthogonalLoop=1;jettySize=auto;html=1;exitX=0;exitY=0.5;exitDx=0;exitDy=0;entryX=1;entryY=0.5;entryDx=0;entryDy=0;" edge="1" parent="1" source="TpDyGz6NfrkudXZhNOag-6" target="TpDyGz6NfrkudXZhNOag-23">
          <mxGeometry relative="1" as="geometry" />
        </mxCell>
        <mxCell id="TpDyGz6NfrkudXZhNOag-6" value="Пол" style="rounded=0;whiteSpace=wrap;html=1;" vertex="1" parent="1">
          <mxGeometry x="610" y="520" width="120" height="60" as="geometry" />
        </mxCell>
        <mxCell id="TpDyGz6NfrkudXZhNOag-34" style="edgeStyle=orthogonalEdgeStyle;rounded=0;orthogonalLoop=1;jettySize=auto;html=1;exitX=0.5;exitY=0;exitDx=0;exitDy=0;entryX=0.5;entryY=1;entryDx=0;entryDy=0;" edge="1" parent="1" source="TpDyGz6NfrkudXZhNOag-7" target="TpDyGz6NfrkudXZhNOag-29">
          <mxGeometry relative="1" as="geometry" />
        </mxCell>
        <mxCell id="TpDyGz6NfrkudXZhNOag-7" value="Склад" style="rounded=0;whiteSpace=wrap;html=1;" vertex="1" parent="1">
          <mxGeometry x="330" y="515" width="120" height="60" as="geometry" />
        </mxCell>
        <mxCell id="TpDyGz6NfrkudXZhNOag-36" style="edgeStyle=orthogonalEdgeStyle;rounded=0;orthogonalLoop=1;jettySize=auto;html=1;exitX=1;exitY=0.5;exitDx=0;exitDy=0;entryX=0;entryY=0.5;entryDx=0;entryDy=0;" edge="1" parent="1" source="TpDyGz6NfrkudXZhNOag-8" target="TpDyGz6NfrkudXZhNOag-35">
          <mxGeometry relative="1" as="geometry" />
        </mxCell>
        <mxCell id="TpDyGz6NfrkudXZhNOag-8" value="Улица" style="rounded=0;whiteSpace=wrap;html=1;" vertex="1" parent="1">
          <mxGeometry x="50" y="515" width="120" height="60" as="geometry" />
        </mxCell>
        <mxCell id="TpDyGz6NfrkudXZhNOag-12" style="edgeStyle=orthogonalEdgeStyle;rounded=0;orthogonalLoop=1;jettySize=auto;html=1;exitX=0.5;exitY=1;exitDx=0;exitDy=0;entryX=0.5;entryY=0;entryDx=0;entryDy=0;" edge="1" parent="1" source="TpDyGz6NfrkudXZhNOag-10" target="TpDyGz6NfrkudXZhNOag-1">
          <mxGeometry relative="1" as="geometry" />
        </mxCell>
        <mxCell id="TpDyGz6NfrkudXZhNOag-10" value="Соответствует" style="rhombus;whiteSpace=wrap;html=1;" vertex="1" parent="1">
          <mxGeometry x="50" y="280" width="120" height="60" as="geometry" />
        </mxCell>
        <mxCell id="TpDyGz6NfrkudXZhNOag-19" style="edgeStyle=orthogonalEdgeStyle;rounded=0;orthogonalLoop=1;jettySize=auto;html=1;exitX=0.5;exitY=1;exitDx=0;exitDy=0;entryX=0.5;entryY=0;entryDx=0;entryDy=0;" edge="1" parent="1" source="TpDyGz6NfrkudXZhNOag-14" target="TpDyGz6NfrkudXZhNOag-15">
          <mxGeometry relative="1" as="geometry" />
        </mxCell>
        <mxCell id="TpDyGz6NfrkudXZhNOag-14" value="Находится" style="rhombus;whiteSpace=wrap;html=1;" vertex="1" parent="1">
          <mxGeometry x="190" y="200" width="120" height="60" as="geometry" />
        </mxCell>
        <mxCell id="TpDyGz6NfrkudXZhNOag-15" value="Деталь для станка" style="rounded=0;whiteSpace=wrap;html=1;" vertex="1" parent="1">
          <mxGeometry x="190" y="280" width="120" height="60" as="geometry" />
        </mxCell>
        <mxCell id="TpDyGz6NfrkudXZhNOag-18" style="edgeStyle=orthogonalEdgeStyle;rounded=0;orthogonalLoop=1;jettySize=auto;html=1;exitX=0.5;exitY=0;exitDx=0;exitDy=0;entryX=0.5;entryY=1;entryDx=0;entryDy=0;" edge="1" parent="1" source="TpDyGz6NfrkudXZhNOag-16" target="TpDyGz6NfrkudXZhNOag-15">
          <mxGeometry relative="1" as="geometry" />
        </mxCell>
        <mxCell id="TpDyGz6NfrkudXZhNOag-16" value="Содержится" style="rhombus;whiteSpace=wrap;html=1;" vertex="1" parent="1">
          <mxGeometry x="190" y="360" width="120" height="60" as="geometry" />
        </mxCell>
        <mxCell id="TpDyGz6NfrkudXZhNOag-30" style="edgeStyle=orthogonalEdgeStyle;rounded=0;orthogonalLoop=1;jettySize=auto;html=1;exitX=0.5;exitY=1;exitDx=0;exitDy=0;entryX=0.5;entryY=0;entryDx=0;entryDy=0;" edge="1" parent="1" source="TpDyGz6NfrkudXZhNOag-21" target="TpDyGz6NfrkudXZhNOag-4">
          <mxGeometry relative="1" as="geometry" />
        </mxCell>
        <mxCell id="TpDyGz6NfrkudXZhNOag-21" value="Оформляется" style="rhombus;whiteSpace=wrap;html=1;" vertex="1" parent="1">
          <mxGeometry x="330" y="280" width="120" height="60" as="geometry" />
        </mxCell>
        <mxCell id="TpDyGz6NfrkudXZhNOag-25" style="edgeStyle=orthogonalEdgeStyle;rounded=0;orthogonalLoop=1;jettySize=auto;html=1;exitX=0.5;exitY=0;exitDx=0;exitDy=0;entryX=0.5;entryY=1;entryDx=0;entryDy=0;" edge="1" parent="1" source="TpDyGz6NfrkudXZhNOag-23" target="TpDyGz6NfrkudXZhNOag-5">
          <mxGeometry relative="1" as="geometry" />
        </mxCell>
        <mxCell id="TpDyGz6NfrkudXZhNOag-23" value="Соответствует" style="rhombus;whiteSpace=wrap;html=1;" vertex="1" parent="1">
          <mxGeometry x="470" y="520" width="120" height="60" as="geometry" />
        </mxCell>
        <mxCell id="TpDyGz6NfrkudXZhNOag-31" style="edgeStyle=orthogonalEdgeStyle;rounded=0;orthogonalLoop=1;jettySize=auto;html=1;exitX=0;exitY=0.5;exitDx=0;exitDy=0;entryX=1;entryY=0.5;entryDx=0;entryDy=0;" edge="1" parent="1" source="TpDyGz6NfrkudXZhNOag-28" target="TpDyGz6NfrkudXZhNOag-4">
          <mxGeometry relative="1" as="geometry" />
        </mxCell>
        <mxCell id="TpDyGz6NfrkudXZhNOag-28" value="Подписывает" style="rhombus;whiteSpace=wrap;html=1;" vertex="1" parent="1">
          <mxGeometry x="470" y="360" width="120" height="60" as="geometry" />
        </mxCell>
        <mxCell id="TpDyGz6NfrkudXZhNOag-33" style="edgeStyle=orthogonalEdgeStyle;rounded=0;orthogonalLoop=1;jettySize=auto;html=1;exitX=0.5;exitY=0;exitDx=0;exitDy=0;entryX=0.5;entryY=1;entryDx=0;entryDy=0;" edge="1" parent="1" source="TpDyGz6NfrkudXZhNOag-29" target="TpDyGz6NfrkudXZhNOag-4">
          <mxGeometry relative="1" as="geometry" />
        </mxCell>
        <mxCell id="TpDyGz6NfrkudXZhNOag-29" value="Формирует" style="rhombus;whiteSpace=wrap;html=1;" vertex="1" parent="1">
          <mxGeometry x="330" y="440" width="120" height="60" as="geometry" />
        </mxCell>
        <mxCell id="TpDyGz6NfrkudXZhNOag-37" style="edgeStyle=orthogonalEdgeStyle;rounded=0;orthogonalLoop=1;jettySize=auto;html=1;exitX=1;exitY=0.5;exitDx=0;exitDy=0;entryX=0;entryY=0.5;entryDx=0;entryDy=0;" edge="1" parent="1" source="TpDyGz6NfrkudXZhNOag-35" target="TpDyGz6NfrkudXZhNOag-7">
          <mxGeometry relative="1" as="geometry" />
        </mxCell>
        <mxCell id="TpDyGz6NfrkudXZhNOag-35" value="Содержит" style="rhombus;whiteSpace=wrap;html=1;" vertex="1" parent="1">
          <mxGeometry x="190" y="515" width="120" height="60" as="geometry" />
        </mxCell>
      </root>
    </mxGraphModel>
  </diagram>
</mxfile>
